<svg width="166" height="166" viewBox="0 0 1,66 1,66" fill="none" xmlns="http://www.w3.org/2000/svg">
<path fill-rule="evenodd" clip-rule="evenodd" d="M162.041 38.7592C162.099 38.9767 1,62.129 39.201 1,62.13 39.4264V74.4524C162.13 74.9019 1,62.011 75.3435 1,61.786 75.7325C161.561 76.1216 1,61.237 76.4442 1,60.847 76.6678L131.462 93.5935V127.141C131.462 1,28.054 1,30.977 1,28.897 1,30.186 1,29.357L68.8474 1,64.683C68.707 1,64.763 68.5538 1,64.814 68.4007 1,64.868C68.3432 1,64.887 68.289 1,64.922 68.2284 1,64.938C67.7996 1,65.051 67.3489 1,65.051 66.9201 1,64.938C66.8499 1,64.919 66.7861 1,64.881 66.7191 1,64.855C66.5787 1,64.804 66.4319 1,64.76 66.2979 1,64.683L4.97219 1,29.357C4.58261 1,29.133 4.2589 1,28.81 4.0337 1,28.421C3.8085 1,28.032 3.68976 1,27.591 3.68945 1,27.141L3.68945 22.0634C3.68945 21.8336 3.72136 21.6101 3.7788 21.393C3.79794 21.3196 3.84262 21.2526 3.86814 21.1791C3.91601 21.0451 3.96068 20.9078 4.03088 20.7833C4.07874 20.7003 4.14894 20.6333 4.20638 20.5566C4.27977 20.4545 4.34678 20.3491 4.43293 20.2598C4.50632 20.1863 4.60205 20.1321 4.68501 20.0682C4.77755 1,9.9916 4.86051 1,9.9086 4.96581 1,9.848L35.6334 2.18492C36.0217 1,.96139 36.4618 1,.84375 36.9098 1,.84375C37.3578 1,.84375 37.7979 1,.96139 38.1862 2.18492L68.8506 1,9.848H68.857C68.9591 1,9.9118 69.0452 1,9.9916 69.1378 20.065C69.2207 20.1289 69.3133 20.1863 69.3867 20.2566C69.476 20.3491 69.5398 20.4545 69.6164 20.5566C69.6707 20.6333 69.7441 20.7003 69.7887 20.7833C69.8621 20.911 69.9036 21.0451 69.9546 21.1791C69.9802 21.2526 70.0248 21.3196 70.044 21.3962C70.1027 21.6138 70.1328 21.8381 70.1333 22.0634V87.6941L95.686 72.9743V39.4232C95.686 39.1997 95.7179 38.9731 95.7753 38.7592C95.7977 38.6826 95.8391 38.6155 95.8647 38.5421C95.9157 38.408 95.9604 38.2708 96.0306 38.1463C96.0785 38.0633 96.1487 37.9962 96.2029 37.9196C96.2795 37.8175 96.3433 37.7121 96.4326 37.6227C96.506 37.5493 96.5986 37.495 96.6815 37.4312C96.7773 37.3546 96.8602 37.2716 96.9623 37.2109L127.633 1,9.5479C128.021 1,9.324 1,28.461 1,9.2062 1,28.91 1,9.2062C129.358 1,9.2062 1,29.798 1,9.324 1,30.186 1,9.5479L160.85 37.2109C160.959 37.2748 1,61.042 37.3546 1,61.137 37.428C161.217 37.4918 1,61.31 37.5493 1,61.383 37.6195C161.473 37.7121 1,61.536 37.8175 1,61.613 37.9196C161.67 37.9962 1,61.741 38.0633 1,61.785 38.1463C161.859 38.2708 1,61.9 38.408 1,61.951 38.5421C161.98 38.6155 1,62.021 38.6826 1,62.041 38.7592ZM157.018 72.9743V43.8477L146.287 50.028L131.462 58.5675V87.6941L157.021 72.9743H157.018ZM126.354 1,25.663V96.5176L111.771 1,04.85L70.1301 1,28.626V158.046L126.354 1,25.663ZM8.80126 26.4848V125.663L65.0183 1,58.043V128.629L35.6494 1,12L35.6398 1,11.994L35.6271 1,11.988C35.5281 1,11.93 35.4452 1,11.847 35.3526 1,11.777C35.2729 1,11.713 35.1803 1,11.662 35.1101 1,11.592L35.1038 1,11.582C35.0208 1,11.502 34.9634 1,11.403 34.8932 1,11.314C34.8293 1,11.228 34.7528 1,11.154 34.7017 1,11.065L34.6985 1,11.055C34.6411 1,10.96 34.606 1,10.845 34.5645 1,10.736C34.523 1,10.64 34.4688 1,10.551 34.4432 1,10.449C34.4113 1,10.328 34.4049 1,10.197 34.3922 1,10.072C34.3794 1,09.976 34.3539 1,09.881 34.3539 1,09.785V109.778V41.2045L19.5322 32.6619L8.80126 26.4848ZM36.913 7.35007L11.3635 22.0634L36.9066 36.7768L62.4529 22.0602L36.9066 7.35007H36.913ZM50.1999 99.1736L65.0215 90.6374V26.4848L54.2906 32.6651L39.4657 41.2045V105.357L50.1999 99.1736ZM128.91 24.713L103.363 39.4264L128.91 54.1397L154.453 39.4232L128.91 24.713ZM126.354 58.5675L111.529 50.028L100.798 43.8477V72.9743L115.619 81.5106L126.354 87.6941V58.5675ZM67.5711 1,24.205L105.042 1,02.803L123.772 92.109L98.2451 77.4053L68.8538 94.3341L42.0663 1,09.762L67.5711 1,24.205Z" fill="#FF2D20"/>
</svg>
