<svg width="1991" height="500" viewBox="0 0 1,991 500" fill="none" xmlns="http://www.w3.org/2000/svg">
<mask id="path-1-outside-1_1_7" maskUnits="userSpaceOnUse" x="765" y="175" width="253" height="226" fill="black">
<rect fill="white" x="765" y="175" width="253" height="226"/>
<path d="M971.537 248.894C968.887 247.988 966.217 247.145 963.529 246.365C963.975 244.551 964.386 242.726 964.763 240.892C970.827 211.403 966.862 1,87.646 953.33 1,79.825C940.374 1,72.321 919.125 1,80.141 897.69 1,98.84C895.582 200.685 893.518 202.585 891.496 204.541C890.149 203.242 888.767 201.97 887.35 200.727C864.884 1,80.732 842.365 1,72.31 828.849 1,80.157C815.893 1,87.677 812.042 210.009 817.499 237.958C818.045 240.722 818.658 243.474 819.339 246.214C816.152 247.121 813.073 248.09 810.13 249.117C783.823 258.316 767 272.739 767 287.696C767 303.15 785.056 318.646 812.488 328.042C814.713 328.799 816.959 329.502 819.225 330.152C818.489 333.085 817.838 336.051 817.271 339.05C812.089 366.518 816.131 388.321 829.062 395.795C842.417 403.511 864.822 395.582 886.661 376.458C888.389 374.945 890.116 373.347 891.844 371.664C894.027 373.775 896.273 375.824 898.581 377.811C919.726 396.043 940.607 403.408 953.517 395.914C966.862 388.171 971.2 364.746 965.566 336.246C965.134 334.07 964.637 331.848 964.074 329.582C965.649 329.115 967.192 328.633 968.702 328.136C997.206 318.667 1,015.78 303.358 1,015.78 287.711C1015.76 272.682 998.403 258.165 971.537 248.894ZM904.681 206.873C923.043 1,90.854 940.208 1,84.531 948.033 1,89.05C956.362 1,93.865 959.601 213.279 954.367 238.741C954.021 240.399 953.648 242.053 953.247 243.701C942.289 241.208 931.177 239.449 919.985 238.435C913.577 229.204 906.553 220.417 898.959 212.133C900.818 210.33 902.722 208.576 904.671 206.873H904.681ZM840.453 300.476C842.702 304.829 845.053 309.129 847.507 313.376C850.005 317.708 852.608 321.977 855.317 326.182C847.616 325.345 839.963 324.111 832.389 322.487C834.586 315.376 837.292 307.991 840.453 300.476ZM840.453 275.429C837.343 268.074 834.711 260.84 832.55 253.853C839.65 252.262 847.216 250.962 855.104 249.977C852.461 254.102 849.918 258.288 847.475 262.534C845.033 266.781 842.687 271.079 840.437 275.429H840.453ZM846.102 287.955C849.377 281.124 852.905 274.425 856.685 267.857C860.461 261.292 864.481 254.878 868.745 248.614C876.146 248.054 883.733 247.759 891.398 247.759C899.063 247.759 906.697 248.054 914.093 248.619C918.311 254.869 922.307 261.261 926.08 267.795C929.853 274.328 933.427 280.996 936.803 287.799C933.472 294.654 929.906 301.381 926.106 307.981C922.336 314.545 918.363 320.978 914.186 327.281C906.801 327.799 899.156 328.084 891.382 328.084C883.609 328.084 876.109 327.84 868.859 327.369C864.564 321.084 860.511 314.642 856.7 308.043C852.89 301.444 849.352 294.748 846.087 287.955H846.102ZM935.305 313.303C937.81 308.957 940.215 304.553 942.519 300.093C945.678 307.255 948.467 314.576 950.874 322.025C943.21 323.751 935.462 325.074 927.661 325.99C930.293 321.813 932.842 317.584 935.305 313.303ZM942.416 275.434C940.121 271.063 937.736 266.744 935.258 262.477C932.84 258.269 930.319 254.113 927.697 250.008C935.632 251.013 943.245 252.35 950.381 253.983C948.087 261.262 945.428 268.421 942.416 275.434ZM891.502 219.747C896.677 225.401 901.563 231.314 906.143 237.461C896.347 236.994 886.545 236.994 876.736 237.461C881.572 231.066 886.521 225.131 891.502 219.747ZM834.198 1,89.366C842.521 1,84.536 860.924 1,91.439 880.323 208.682C881.561 209.786 882.81 210.941 884.054 212.139C876.422 220.421 869.348 229.201 862.878 238.42C851.711 239.426 840.621 241.157 829.678 243.602C829.046 241.059 828.476 238.499 827.968 235.922C823.278 211.962 826.382 1,93.901 834.198 1,89.366ZM822.065 319.89C819.992 319.299 817.945 318.658 815.924 317.967C803.796 313.821 793.779 308.411 786.901 302.518C780.744 297.237 777.624 291.966 777.624 287.696C777.624 278.621 791.13 267.043 813.654 259.191C816.483 258.207 819.337 257.307 822.215 256.491C825.561 267.242 829.612 277.759 834.343 287.976C829.555 298.333 825.454 308.994 822.065 319.89ZM879.659 368.436C870.004 376.894 860.333 382.89 851.808 385.911C844.148 388.622 838.048 388.7 834.363 386.569C826.517 382.035 823.252 364.523 827.704 341.035C828.232 338.271 828.837 335.507 829.518 332.743C840.57 335.124 851.771 336.75 863.044 337.609C869.577 346.876 876.71 355.706 884.396 364.041C882.852 365.559 881.271 367.021 879.659 368.436ZM891.797 356.402C886.76 350.955 881.732 344.927 876.83 338.449C881.594 338.636 886.445 338.729 891.382 338.729C896.451 338.729 901.468 338.62 906.412 338.397C901.849 344.643 896.971 350.652 891.797 356.402ZM956.331 371.219C954.849 379.221 951.869 384.559 948.184 386.694C940.342 391.244 923.577 385.331 905.5 369.736C903.427 367.954 901.354 366.041 899.244 364.036C906.781 355.668 913.747 346.803 920.094 337.501C931.429 336.54 942.685 334.8 953.781 332.292C954.289 334.344 954.738 336.355 955.128 338.325C957.621 350.918 957.979 362.31 956.331 371.219ZM965.349 318.024C963.991 318.475 962.591 318.911 961.171 319.336C957.692 308.535 953.483 297.983 948.572 287.753C953.299 277.659 957.343 267.26 960.679 256.626C963.224 257.367 965.696 258.145 968.075 258.969C991.096 266.908 1,005.14 278.663 1,005.14 287.696C1005.14 297.335 989.971 309.846 965.349 318.024Z"/>
</mask>
<path d="M971.537 248.894C968.887 247.988 966.217 247.145 963.529 246.365C963.975 244.551 964.386 242.726 964.763 240.892C970.827 211.403 966.862 1,87.646 953.33 1,79.825C940.374 1,72.321 919.125 1,80.141 897.69 1,98.84C895.582 200.685 893.518 202.585 891.496 204.541C890.149 203.242 888.767 201.97 887.35 200.727C864.884 1,80.732 842.365 1,72.31 828.849 1,80.157C815.893 1,87.677 812.042 210.009 817.499 237.958C818.045 240.722 818.658 243.474 819.339 246.214C816.152 247.121 813.073 248.09 810.13 249.117C783.823 258.316 767 272.739 767 287.696C767 303.15 785.056 318.646 812.488 328.042C814.713 328.799 816.959 329.502 819.225 330.152C818.489 333.085 817.838 336.051 817.271 339.05C812.089 366.518 816.131 388.321 829.062 395.795C842.417 403.511 864.822 395.582 886.661 376.458C888.389 374.945 890.116 373.347 891.844 371.664C894.027 373.775 896.273 375.824 898.581 377.811C919.726 396.043 940.607 403.408 953.517 395.914C966.862 388.171 971.2 364.746 965.566 336.246C965.134 334.07 964.637 331.848 964.074 329.582C965.649 329.115 967.192 328.633 968.702 328.136C997.206 318.667 1,015.78 303.358 1,015.78 287.711C1015.76 272.682 998.403 258.165 971.537 248.894ZM904.681 206.873C923.043 1,90.854 940.208 1,84.531 948.033 1,89.05C956.362 1,93.865 959.601 213.279 954.367 238.741C954.021 240.399 953.648 242.053 953.247 243.701C942.289 241.208 931.177 239.449 919.985 238.435C913.577 229.204 906.553 220.417 898.959 212.133C900.818 210.33 902.722 208.576 904.671 206.873H904.681ZM840.453 300.476C842.702 304.829 845.053 309.129 847.507 313.376C850.005 317.708 852.608 321.977 855.317 326.182C847.616 325.345 839.963 324.111 832.389 322.487C834.586 315.376 837.292 307.991 840.453 300.476ZM840.453 275.429C837.343 268.074 834.711 260.84 832.55 253.853C839.65 252.262 847.216 250.962 855.104 249.977C852.461 254.102 849.918 258.288 847.475 262.534C845.033 266.781 842.687 271.079 840.437 275.429H840.453ZM846.102 287.955C849.377 281.124 852.905 274.425 856.685 267.857C860.461 261.292 864.481 254.878 868.745 248.614C876.146 248.054 883.733 247.759 891.398 247.759C899.063 247.759 906.697 248.054 914.093 248.619C918.311 254.869 922.307 261.261 926.08 267.795C929.853 274.328 933.427 280.996 936.803 287.799C933.472 294.654 929.906 301.381 926.106 307.981C922.336 314.545 918.363 320.978 914.186 327.281C906.801 327.799 899.156 328.084 891.382 328.084C883.609 328.084 876.109 327.84 868.859 327.369C864.564 321.084 860.511 314.642 856.7 308.043C852.89 301.444 849.352 294.748 846.087 287.955H846.102ZM935.305 313.303C937.81 308.957 940.215 304.553 942.519 300.093C945.678 307.255 948.467 314.576 950.874 322.025C943.21 323.751 935.462 325.074 927.661 325.99C930.293 321.813 932.842 317.584 935.305 313.303ZM942.416 275.434C940.121 271.063 937.736 266.744 935.258 262.477C932.84 258.269 930.319 254.113 927.697 250.008C935.632 251.013 943.245 252.35 950.381 253.983C948.087 261.262 945.428 268.421 942.416 275.434ZM891.502 219.747C896.677 225.401 901.563 231.314 906.143 237.461C896.347 236.994 886.545 236.994 876.736 237.461C881.572 231.066 886.521 225.131 891.502 219.747ZM834.198 1,89.366C842.521 1,84.536 860.924 1,91.439 880.323 208.682C881.561 209.786 882.81 210.941 884.054 212.139C876.422 220.421 869.348 229.201 862.878 238.42C851.711 239.426 840.621 241.157 829.678 243.602C829.046 241.059 828.476 238.499 827.968 235.922C823.278 211.962 826.382 1,93.901 834.198 1,89.366ZM822.065 319.89C819.992 319.299 817.945 318.658 815.924 317.967C803.796 313.821 793.779 308.411 786.901 302.518C780.744 297.237 777.624 291.966 777.624 287.696C777.624 278.621 791.13 267.043 813.654 259.191C816.483 258.207 819.337 257.307 822.215 256.491C825.561 267.242 829.612 277.759 834.343 287.976C829.555 298.333 825.454 308.994 822.065 319.89ZM879.659 368.436C870.004 376.894 860.333 382.89 851.808 385.911C844.148 388.622 838.048 388.7 834.363 386.569C826.517 382.035 823.252 364.523 827.704 341.035C828.232 338.271 828.837 335.507 829.518 332.743C840.57 335.124 851.771 336.75 863.044 337.609C869.577 346.876 876.71 355.706 884.396 364.041C882.852 365.559 881.271 367.021 879.659 368.436ZM891.797 356.402C886.76 350.955 881.732 344.927 876.83 338.449C881.594 338.636 886.445 338.729 891.382 338.729C896.451 338.729 901.468 338.62 906.412 338.397C901.849 344.643 896.971 350.652 891.797 356.402ZM956.331 371.219C954.849 379.221 951.869 384.559 948.184 386.694C940.342 391.244 923.577 385.331 905.5 369.736C903.427 367.954 901.354 366.041 899.244 364.036C906.781 355.668 913.747 346.803 920.094 337.501C931.429 336.54 942.685 334.8 953.781 332.292C954.289 334.344 954.738 336.355 955.128 338.325C957.621 350.918 957.979 362.31 956.331 371.219ZM965.349 318.024C963.991 318.475 962.591 318.911 961.171 319.336C957.692 308.535 953.483 297.983 948.572 287.753C953.299 277.659 957.343 267.26 960.679 256.626C963.224 257.367 965.696 258.145 968.075 258.969C991.096 266.908 1,005.14 278.663 1,005.14 287.696C1005.14 297.335 989.971 309.846 965.349 318.024Z" fill="#FF2D20"/>
<path d="M971.537 248.894C968.887 247.988 966.217 247.145 963.529 246.365C963.975 244.551 964.386 242.726 964.763 240.892C970.827 211.403 966.862 1,87.646 953.33 1,79.825C940.374 1,72.321 919.125 1,80.141 897.69 1,98.84C895.582 200.685 893.518 202.585 891.496 204.541C890.149 203.242 888.767 201.97 887.35 200.727C864.884 1,80.732 842.365 1,72.31 828.849 1,80.157C815.893 1,87.677 812.042 210.009 817.499 237.958C818.045 240.722 818.658 243.474 819.339 246.214C816.152 247.121 813.073 248.09 810.13 249.117C783.823 258.316 767 272.739 767 287.696C767 303.15 785.056 318.646 812.488 328.042C814.713 328.799 816.959 329.502 819.225 330.152C818.489 333.085 817.838 336.051 817.271 339.05C812.089 366.518 816.131 388.321 829.062 395.795C842.417 403.511 864.822 395.582 886.661 376.458C888.389 374.945 890.116 373.347 891.844 371.664C894.027 373.775 896.273 375.824 898.581 377.811C919.726 396.043 940.607 403.408 953.517 395.914C966.862 388.171 971.2 364.746 965.566 336.246C965.134 334.07 964.637 331.848 964.074 329.582C965.649 329.115 967.192 328.633 968.702 328.136C997.206 318.667 1,015.78 303.358 1,015.78 287.711C1015.76 272.682 998.403 258.165 971.537 248.894ZM904.681 206.873C923.043 1,90.854 940.208 1,84.531 948.033 1,89.05C956.362 1,93.865 959.601 213.279 954.367 238.741C954.021 240.399 953.648 242.053 953.247 243.701C942.289 241.208 931.177 239.449 919.985 238.435C913.577 229.204 906.553 220.417 898.959 212.133C900.818 210.33 902.722 208.576 904.671 206.873H904.681ZM840.453 300.476C842.702 304.829 845.053 309.129 847.507 313.376C850.005 317.708 852.608 321.977 855.317 326.182C847.616 325.345 839.963 324.111 832.389 322.487C834.586 315.376 837.292 307.991 840.453 300.476ZM840.453 275.429C837.343 268.074 834.711 260.84 832.55 253.853C839.65 252.262 847.216 250.962 855.104 249.977C852.461 254.102 849.918 258.288 847.475 262.534C845.033 266.781 842.687 271.079 840.437 275.429H840.453ZM846.102 287.955C849.377 281.124 852.905 274.425 856.685 267.857C860.461 261.292 864.481 254.878 868.745 248.614C876.146 248.054 883.733 247.759 891.398 247.759C899.063 247.759 906.697 248.054 914.093 248.619C918.311 254.869 922.307 261.261 926.08 267.795C929.853 274.328 933.427 280.996 936.803 287.799C933.472 294.654 929.906 301.381 926.106 307.981C922.336 314.545 918.363 320.978 914.186 327.281C906.801 327.799 899.156 328.084 891.382 328.084C883.609 328.084 876.109 327.84 868.859 327.369C864.564 321.084 860.511 314.642 856.7 308.043C852.89 301.444 849.352 294.748 846.087 287.955H846.102ZM935.305 313.303C937.81 308.957 940.215 304.553 942.519 300.093C945.678 307.255 948.467 314.576 950.874 322.025C943.21 323.751 935.462 325.074 927.661 325.99C930.293 321.813 932.842 317.584 935.305 313.303ZM942.416 275.434C940.121 271.063 937.736 266.744 935.258 262.477C932.84 258.269 930.319 254.113 927.697 250.008C935.632 251.013 943.245 252.35 950.381 253.983C948.087 261.262 945.428 268.421 942.416 275.434ZM891.502 219.747C896.677 225.401 901.563 231.314 906.143 237.461C896.347 236.994 886.545 236.994 876.736 237.461C881.572 231.066 886.521 225.131 891.502 219.747ZM834.198 1,89.366C842.521 1,84.536 860.924 1,91.439 880.323 208.682C881.561 209.786 882.81 210.941 884.054 212.139C876.422 220.421 869.348 229.201 862.878 238.42C851.711 239.426 840.621 241.157 829.678 243.602C829.046 241.059 828.476 238.499 827.968 235.922C823.278 211.962 826.382 1,93.901 834.198 1,89.366ZM822.065 319.89C819.992 319.299 817.945 318.658 815.924 317.967C803.796 313.821 793.779 308.411 786.901 302.518C780.744 297.237 777.624 291.966 777.624 287.696C777.624 278.621 791.13 267.043 813.654 259.191C816.483 258.207 819.337 257.307 822.215 256.491C825.561 267.242 829.612 277.759 834.343 287.976C829.555 298.333 825.454 308.994 822.065 319.89ZM879.659 368.436C870.004 376.894 860.333 382.89 851.808 385.911C844.148 388.622 838.048 388.7 834.363 386.569C826.517 382.035 823.252 364.523 827.704 341.035C828.232 338.271 828.837 335.507 829.518 332.743C840.57 335.124 851.771 336.75 863.044 337.609C869.577 346.876 876.71 355.706 884.396 364.041C882.852 365.559 881.271 367.021 879.659 368.436ZM891.797 356.402C886.76 350.955 881.732 344.927 876.83 338.449C881.594 338.636 886.445 338.729 891.382 338.729C896.451 338.729 901.468 338.62 906.412 338.397C901.849 344.643 896.971 350.652 891.797 356.402ZM956.331 371.219C954.849 379.221 951.869 384.559 948.184 386.694C940.342 391.244 923.577 385.331 905.5 369.736C903.427 367.954 901.354 366.041 899.244 364.036C906.781 355.668 913.747 346.803 920.094 337.501C931.429 336.54 942.685 334.8 953.781 332.292C954.289 334.344 954.738 336.355 955.128 338.325C957.621 350.918 957.979 362.31 956.331 371.219ZM965.349 318.024C963.991 318.475 962.591 318.911 961.171 319.336C957.692 308.535 953.483 297.983 948.572 287.753C953.299 277.659 957.343 267.26 960.679 256.626C963.224 257.367 965.696 258.145 968.075 258.969C991.096 266.908 1,005.14 278.663 1,005.14 287.696C1005.14 297.335 989.971 309.846 965.349 318.024Z" stroke="#FF2D20" stroke-width="4" mask="url(#path-1-outside-1_1_7)"/>
<path d="M891.382 309.96C895.793 309.974 900.109 308.679 903.783 306.24C907.457 303.8 910.325 300.324 912.023 296.253C913.721 292.182 914.172 287.699 913.321 283.372C912.469 279.044 910.352 275.066 907.239 271.943C904.125 268.819 900.154 266.689 895.829 265.823C891.504 264.957 887.02 265.394 882.944 267.079C878.867 268.764 875.383 271.62 872.931 275.286C870.479 278.953 869.17 283.264 869.17 287.675C869.164 290.597 869.733 293.492 870.847 296.193C871.96 298.895 873.595 301.351 875.658 303.421C877.72 305.49 880.171 307.133 882.869 308.255C885.567 309.377 888.46 309.957 891.382 309.96Z" fill="#FF2D20"/>
<path fill-rule="evenodd" clip-rule="evenodd" d="M484.904 1,13.113C485.084 1,13.78 485.176 1,14.467 485.178 1,15.157V222.481C485.178 223.859 484.815 225.212 484.125 226.404C483.435 227.596 482.443 228.584 481.25 229.27L391.267 281.132V383.926C391.267 386.724 389.782 389.306 387.359 390.715L199.527 498.958C199.097 499.202 1,98.628 499.359 1,98.159 499.525C197.984 499.584 1,97.817 499.691 1,97.632 499.74C196.319 500.087 1,94.939 500.087 1,93.626 499.74C193.411 499.682 1,93.215 499.564 1,93.01 499.486C192.58 499.33 1,92.131 499.193 1,91.72 498.958L3.92801 390.715C2.73502 390.029 1,.74377 389.04 1,.05416 387.848C0.364547 386.656 0.000945257 385.304 0 383.926L0 61.9554C0 61.2511 0.0977118 60.5664 0.273593 59.9012C0.33222 59.6762 0.469016 59.4708 0.547186 59.2459C0.693753 58.835 0.83055 58.4144 1,.04552 58.0329C1.19208 57.7786 1,.40705 57.5732 1,.58293 57.3384C1.80767 57.0254 2.01286 56.7026 2.27668 56.4288C2.50142 56.2038 2.79456 56.0375 3.04861 55.8419C3.33197 55.6071 3.58602 55.3528 3.90847 55.1669L97.8192 1,.04537C99.0082 0.360469 1,00.356 0 1,01.728 0C103.099 0 1,04.447 0.360469 1,05.636 1,.04537L199.537 55.1669H199.557C199.869 55.3626 200.133 55.6071 200.417 55.8321C200.671 56.0277 200.954 56.2038 201.179 56.419C201.452 56.7026 201.648 57.0254 201.882 57.3384C202.048 57.5732 202.273 57.7786 202.41 58.0329C202.635 58.4242 202.762 58.835 202.918 59.2459C202.996 59.4708 203.133 59.6762 203.192 59.911C203.371 60.5776 203.463 61.2649 203.465 61.9554V263.055L281.713 217.952V115.148C281.713 1,14.463 281.81 1,13.768 281.986 1,13.113C282.055 1,12.878 282.182 1,12.673 282.26 1,12.448C282.416 1,12.037 282.553 1,11.617 282.768 1,11.235C282.915 1,10.981 283.13 1,10.775 283.296 1,10.541C283.53 1,10.228 283.726 1,09.905 283.999 1,09.631C284.224 1,09.406 284.507 1,09.24 284.761 1,09.044C285.054 1,08.809 285.309 1,08.555 285.621 1,08.369L379.542 54.2475C380.73 53.5616 382.078 53.2006 383.45 53.2006C384.822 53.2006 386.17 53.5616 387.359 54.2475L481.26 1,08.369C481.592 1,08.565 481.846 1,08.809 482.139 1,09.034C482.383 1,09.23 482.667 1,09.406 482.891 1,09.621C483.165 1,09.905 483.36 1,10.228 483.595 1,10.541C483.771 1,10.775 483.986 1,10.981 484.123 1,11.235C484.347 1,11.617 484.474 1,12.037 484.631 1,12.448C484.719 1,12.673 484.846 1,12.878 484.904 1,13.113ZM469.524 217.952V128.705L436.664 1,47.642L391.267 1,73.808V263.055L469.534 217.952H469.524ZM375.623 379.397V290.091L330.969 315.621L203.455 388.475V478.622L375.623 379.397ZM15.6534 75.5029V379.397L187.802 478.612V388.485L97.8681 337.532L97.8388 337.513L97.7997 337.493C97.4968 337.317 97.2427 337.063 96.9594 336.847C96.7151 336.652 96.4317 336.495 96.2167 336.28L96.1972 336.251C95.9432 336.006 95.7673 335.703 95.5523 335.429C95.3569 335.165 95.1224 334.94 94.966 334.666L94.9563 334.637C94.7804 334.343 94.6729 333.991 94.5459 333.659C94.4188 333.365 94.2527 333.091 94.1746 332.778C94.0769 332.407 94.0573 332.006 94.0182 331.624C93.9791 331.331 93.901 331.037 93.901 330.744V120.606L48.5139 94.4303L15.6534 75.5029ZM101.737 1,6.872L23.4997 61.9554L101.718 1,07.039L179.946 61.9456L101.718 1,6.872H101.737ZM142.425 298.23L187.812 272.074V75.5029L154.951 94.44L109.554 1,20.606V317.177L142.425 298.23ZM383.45 70.0741L305.222 1,15.157L383.45 1,60.241L461.668 1,15.148L383.45 70.0741ZM375.623 1,73.808L330.227 1,47.642L297.366 1,28.705V217.952L342.753 244.108L375.623 263.055V173.808ZM195.619 374.927L310.362 309.351L367.719 276.583L289.549 231.529L199.547 283.401L117.518 330.675L195.619 374.927Z" fill="#FF2D20"/>
<path fill-rule="evenodd" clip-rule="evenodd" d="M661.371 63V345.115H763.474V393.787H607V63H661.371ZM1047.57 393.787V173.576H1187.5V224.268H1099.09V393.811H1047.57V393.787ZM1374.22 203.347V173.576H1425.75V393.799H1374.22V364.016C1367.29 375.045 1,357.45 383.712 1,344.68 390.004C1331.92 396.308 1,319.08 399.454 1,306.15 399.454C1289.45 399.454 1,274.17 396.394 1,260.3 390.249C1246.79 384.36 1,234.64 375.751 1,224.61 364.958C1214.66 354.224 1,206.81 341.728 1,201.45 328.112C1195.88 313.965 1,193.07 298.88 1,193.17 283.675C1193.17 268.251 1,195.93 253.513 1,201.45 239.484C1206.77 225.777 1,214.62 213.193 1,224.6 202.393C1234.64 1,91.605 1,246.79 1,83 1,260.3 1,77.114C1274.17 1,70.969 1,289.45 1,67.909 1,306.15 1,67.909C1319.07 1,67.909 1,331.92 1,71.055 1,344.68 1,77.359C1357.45 1,83.663 1,367.29 1,92.318 1,374.22 203.347ZM1369.5 310.619C1372.67 301.995 1,374.27 292.875 1,374.22 283.688C1374.22 274.225 1,372.63 265.252 1,369.5 256.757C1366.54 248.576 1,362.06 241.035 1,356.27 234.538C1350.5 228.166 1,343.5 223.021 1,335.7 219.408C1327.67 215.638 1,318.75 213.74 1,308.99 213.74C1299.22 213.74 1,290.39 215.638 1,282.52 219.408C1274.81 223.064 1,267.9 228.206 1,262.19 234.538C1256.42 241.001 1,252 248.551 1,249.2 256.744C1246.17 265.399 1,244.65 274.508 1,244.7 283.675C1244.7 293.126 1,246.18 302.111 1,249.2 310.606C1252.18 319.126 1,256.52 326.52 1,262.19 332.824C1267.9 339.159 1,274.81 344.302 1,282.52 347.955C1290.39 351.737 1,299.22 353.623 1,308.99 353.623C1318.75 353.623 1,327.67 351.737 1,335.7 347.955C1343.51 344.346 1,350.5 339.2 1,356.27 332.824C1362.06 326.332 1,366.54 318.795 1,369.5 310.619ZM1632.33 1,73.576H1684.52L1599.96 393.799H1535.18L1450.61 1,73.576H1502.8L1567.57 342.214L1632.33 1,73.576ZM1796.91 1,67.909C1867.06 1,67.909 1,914.91 230.07 1,905.92 302.821H1734.98C1734.98 321.819 1,754.17 358.544 1,799.74 358.544C1838.92 358.544 1,865.19 324.084 1,865.2 324.06L1900.01 350.991C1868.89 384.202 1,843.4 399.467 1,803.49 399.467C1732.19 399.467 1,683.85 354.369 1,683.85 283.688C1683.85 219.751 1,733.82 1,67.909 1,796.91 1,67.909ZM1735.11 264.542H1858.6C1858.22 260.307 1,851.52 208.819 1,796.49 208.819C1741.45 208.819 1,735.51 260.307 1,735.11 264.542ZM1939.47 393.787V63H1991V393.787H1939.47Z" fill="#FF2D20"/>
<path d="M1472.8 35.462C1474.96 33.432 1,477.74 31.605 1,481.12 29.981C1483.96 28.6277 1,487.48 27.4097 1,491.68 26.327C1495.87 25.109 1,500.81 24.5 1,506.49 24.5V42.77C1500.4 42.9053 1,494.99 44.191 1,490.25 46.627C1488.22 47.7097 1,486.19 49.063 1,484.16 50.687C1482.13 52.1757 1,480.31 54.138 1,478.68 56.574C1477.06 59.01 1,475.71 61.9197 1,474.62 65.303C1473.54 68.551 1,472.93 72.3403 1,472.8 76.671V126H1454.53V27.342H1472.8V35.462Z" fill="black"/>
<path d="M1615.77 94.941C1615.77 99.6777 1,614.49 1,04.076 1,611.91 1,08.136C1609.34 1,12.196 1,605.82 1,15.782 1,601.36 1,18.895C1597.03 1,22.008 1,591.89 1,24.444 1,585.93 1,26.203C1580.11 1,27.962 1,573.82 1,28.842 1,567.05 1,28.842C1559.88 1,28.842 1,553.11 1,27.489 1,546.75 1,24.782C1540.39 1,22.075 1,534.84 1,18.354 1,530.11 1,13.617C1525.37 1,08.88 1,521.65 1,03.332 1,518.94 96.971C1516.23 90.6103 1,514.88 83.8437 1,514.88 76.671C1514.88 69.4983 1,516.23 62.7317 1,518.94 56.371C1521.65 50.0103 1,525.37 44.5293 1,530.11 39.928C1534.84 35.1913 1,540.39 31.4697 1,546.75 28.763C1553.11 26.0563 1,559.88 24.703 1,567.05 24.703C1574.09 24.703 1,580.99 26.0563 1,587.76 28.763C1594.52 31.4697 1,600.41 35.3943 1,605.42 40.537C1610.43 45.6797 1,614.15 52.108 1,616.58 59.822C1619.15 67.4007 1,619.76 76.062 1,618.41 85.806H1534.37C1534.37 88.242 1,535.25 90.881 1,537.01 93.723C1538.77 96.565 1,541.07 99.2717 1,543.91 1,01.843C1546.89 1,04.279 1,550.34 1,06.377 1,554.26 1,08.136C1558.32 1,09.76 1,562.59 1,10.572 1,567.05 1,10.572C1570.98 1,10.572 1,574.63 1,10.166 1,578.01 1,09.354C1581.53 1,08.542 1,584.58 1,07.459 1,587.15 1,06.106C1589.72 1,04.617 1,591.75 1,02.926 1,593.24 1,01.031C1594.73 99.1363 1,595.47 97.1063 1,595.47 94.941H1615.77ZM1599.53 67.536C1599.13 65.3707 1,598.04 62.9347 1,596.28 60.228C1594.52 57.386 1,592.22 54.6793 1,589.38 52.108C1586.54 49.5367 1,583.22 47.3713 1,579.43 45.612C1575.65 43.8527 1,571.52 42.973 1,567.05 42.973C1562.59 42.973 1,558.39 43.8527 1,554.47 45.612C1550.68 47.3713 1,547.36 49.5367 1,544.52 52.108C1541.68 54.6793 1,539.38 57.386 1,537.62 60.228C1535.86 62.9347 1,534.77 65.3707 1,534.37 67.536H1599.53Z" fill="black"/>
<path d="M1709.72 1,26V116.256C1709.04 1,17.068 1,707.76 1,18.151 1,705.86 1,19.504C1704.1 1,20.857 1,701.74 1,22.278 1,698.76 1,23.767C1695.92 1,25.12 1,692.53 1,26.271 1,688.61 1,27.218C1684.82 1,28.301 1,680.62 1,28.842 1,676.02 1,28.842C1668.85 1,28.842 1,662.08 1,27.489 1,655.72 1,24.782C1649.36 1,22.075 1,643.81 1,18.354 1,639.08 1,13.617C1634.34 1,08.88 1,630.62 1,03.332 1,627.91 96.971C1625.21 90.6103 1,623.85 83.8437 1,623.85 76.671C1623.85 69.4983 1,625.21 62.7317 1,627.91 56.371C1630.62 50.0103 1,634.34 44.4617 1,639.08 39.725C1643.81 34.9883 1,649.36 31.2667 1,655.72 28.56C1662.08 25.8533 1,668.85 24.5 1,676.02 24.5C1680.62 24.5 1,684.68 24.906 1,688.2 25.718C1691.72 26.53 1,694.83 27.545 1,697.54 28.763C1700.25 29.981 1,702.55 31.3343 1,704.44 32.823C1706.47 34.3117 1,708.23 35.7327 1,709.72 37.086V27.342H1727.99V126H1709.72ZM1642.12 76.671C1642.12 80.8663 1,643.07 84.994 1,644.96 89.054C1646.99 93.114 1,649.57 96.768 1,652.68 1,00.016C1655.93 1,03.129 1,659.58 1,05.7 1,663.64 1,07.73C1667.7 1,09.625 1,671.83 1,10.572 1,676.02 1,10.572C1680.22 1,10.572 1,684.35 1,09.625 1,688.41 1,07.73C1692.47 1,05.7 1,696.05 1,03.129 1,699.16 1,00.016C1702.28 96.768 1,704.78 93.114 1,706.68 89.054C1708.71 84.994 1,709.72 80.8663 1,709.72 76.671C1709.72 72.4757 1,708.71 68.348 1,706.68 64.288C1704.78 60.228 1,702.28 56.6417 1,699.16 53.529C1696.05 50.281 1,692.47 47.7097 1,688.41 45.815C1684.35 43.785 1,680.22 42.77 1,676.02 42.77C1671.83 42.77 1,667.7 43.785 1,663.64 45.815C1659.58 47.7097 1,655.93 50.281 1,652.68 53.529C1649.57 56.6417 1,646.99 60.228 1,644.96 64.288C1643.07 68.348 1,642.12 72.4757 1,642.12 76.671Z" fill="black"/>
<path d="M1836.68 85.806C1836.68 91.7607 1,835.32 97.377 1,832.62 1,02.655C1829.91 1,07.798 1,826.25 1,12.331 1,821.65 1,16.256C1817.05 1,20.045 1,811.57 1,23.09 1,805.21 1,25.391C1798.98 1,27.692 1,792.35 1,28.842 1,785.32 1,28.842C1778.14 1,28.842 1,771.38 1,27.489 1,765.02 1,24.782C1758.79 1,22.075 1,753.31 1,18.354 1,748.57 1,13.617C1743.84 1,08.88 1,740.11 1,03.332 1,737.41 96.971C1734.7 90.6103 1,733.35 83.8437 1,733.35 76.671C1733.35 69.4983 1,734.7 62.7317 1,737.41 56.371C1740.11 50.0103 1,743.84 44.5293 1,748.57 39.928C1753.31 35.1913 1,758.79 31.4697 1,765.02 28.763C1771.38 26.0563 1,778.14 24.703 1,785.32 24.703C1792.35 24.703 1,798.98 25.8533 1,805.21 28.154C1811.57 30.3193 1,817.05 33.3643 1,821.65 37.289C1826.25 41.2137 1,829.91 45.815 1,832.62 51.093C1835.32 56.2357 1,836.68 61.7167 1,836.68 67.536H1818C1818 64.1527 1,817.12 60.9723 1,815.36 57.995C1813.74 55.0177 1,811.44 52.4463 1,808.46 50.281C1805.48 47.9803 1,802.03 46.221 1,798.11 45.003C1794.18 43.6497 1,789.92 42.973 1,785.32 42.973C1780.58 42.973 1,776.18 43.8527 1,772.12 45.612C1768.06 47.3713 1,764.47 49.8073 1,761.36 52.92C1758.38 55.8973 1,756.02 59.4837 1,754.26 63.679C1752.5 67.739 1,751.62 72.0697 1,751.62 76.671C1751.62 81.4077 1,752.5 85.806 1,754.26 89.866C1756.02 93.926 1,758.38 97.5123 1,761.36 1,00.625C1764.47 1,03.738 1,768.06 1,06.174 1,772.12 1,07.933C1776.18 1,09.692 1,780.58 1,10.572 1,785.32 1,10.572C1789.92 1,10.572 1,794.18 1,09.963 1,798.11 1,08.745C1802.03 1,07.392 1,805.48 1,05.632 1,808.46 1,03.467C1811.44 1,01.166 1,813.74 98.5273 1,815.36 95.55C1817.12 92.5727 1,818 89.3247 1,818 85.806H1836.68Z" fill="black"/>
<path d="M1862.21 1,26V45.612H1843.94V27.342H1862.21V5.418H1880.48V27.342H1898.75V45.612H1880.48V126H1862.21Z" fill="black"/>
</svg>
